<?xml version="1.0" encoding="UTF-8" standalone="no"?>
<!-- Created with Inkscape (http://www.inkscape.org/) -->

<svg
   xmlns:dc="http://purl.org/dc/elements/1.1/"
   xmlns:cc="http://creativecommons.org/ns#"
   xmlns:rdf="http://www.w3.org/1999/02/22-rdf-syntax-ns#"
   xmlns:svg="http://www.w3.org/2000/svg"
   xmlns="http://www.w3.org/2000/svg"
   xmlns:sodipodi="http://sodipodi.sourceforge.net/DTD/sodipodi-0.dtd"
   xmlns:inkscape="http://www.inkscape.org/namespaces/inkscape"
   width="512px"
   height="90px"
   viewBox="0 0 512 90"
   version="1.1"
   id="SVGRoot"
   inkscape:version="0.92.1 r15371"
   sodipodi:docname="rating.svg">
  <sodipodi:namedview
     id="base"
     pagecolor="#ffffff"
     bordercolor="#666666"
     borderopacity="1.0"
     inkscape:pageopacity="0.0"
     inkscape:pageshadow="2"
     inkscape:zoom="2.296875"
     inkscape:cx="9.1996451"
     inkscape:cy="45"
     inkscape:document-units="px"
     inkscape:current-layer="layer1"
     showgrid="false"
     inkscape:window-width="1366"
     inkscape:window-height="704"
     inkscape:window-x="0"
     inkscape:window-y="27"
     inkscape:window-maximized="1" />
  <defs
     id="defs3990" />
  <metadata
     id="metadata3993">
    <rdf:RDF>
      <cc:Work
         rdf:about="">
        <dc:format>image/svg+xml</dc:format>
        <dc:type
           rdf:resource="http://purl.org/dc/dcmitype/StillImage" />
        <dc:title></dc:title>
      </cc:Work>
    </rdf:RDF>
  </metadata>
  <g
     id="layer1"
     inkscape:groupmode="layer"
     inkscape:label="Layer 1">
    <g
       transform="translate(-2.04e-4,-210.99955)"
       id="g6">
      <g
         id="g4">
        <path
           style="fill:#ffda44"
           inkscape:connector-curvature="0"
           d="m 94.526,244.611 c -0.769,-2.359 -2.809,-4.074 -5.267,-4.432 L 64.36,236.561 53.234,214.08 c -2.203,-4.445 -9.484,-4.445 -11.687,0 l -11.126,22.481 -24.84,3.618 c -2.451,0.358 -4.491,2.079 -5.26,4.439 -0.769,2.353 -0.13,4.941 1.649,6.674 l 18.016,17.56 -4.25,24.775 c -0.417,2.444 0.587,4.921 2.594,6.381 2.014,1.453 4.68,1.643 6.87,0.489 l 22.188,-11.7 22.253,11.7 c 0.952,0.502 1.995,0.75 3.031,0.75 1.349,0 2.698,-0.424 3.839,-1.238 2.008,-1.467 3.011,-3.937 2.594,-6.381 l -4.243,-24.775 18.016,-17.56 c 1.779,-1.728 2.417,-4.322 1.648,-6.682 z"
           id="path2" />
      </g>
    </g>
    <g
       transform="translate(-2.04e-4,-210.99955)"
       id="g12">
      <g
         id="g10">
        <path
           style="fill:#ffda44"
           inkscape:connector-curvature="0"
           d="m 198.815,244.611 c -0.769,-2.359 -2.809,-4.074 -5.267,-4.432 l -24.899,-3.618 -11.126,-22.481 c -2.203,-4.445 -9.484,-4.445 -11.687,0 l -11.126,22.481 -24.84,3.618 c -2.451,0.358 -4.491,2.079 -5.26,4.439 -0.769,2.353 -0.13,4.941 1.649,6.674 l 18.016,17.56 -4.25,24.775 c -0.417,2.444 0.587,4.928 2.594,6.381 2.008,1.453 4.68,1.643 6.87,0.489 l 22.188,-11.7 22.253,11.7 c 0.952,0.502 1.995,0.75 3.031,0.75 1.349,0 2.698,-0.424 3.839,-1.238 2.008,-1.467 3.011,-3.937 2.594,-6.381 l -4.243,-24.775 18.016,-17.56 c 1.779,-1.728 2.417,-4.322 1.648,-6.682 z"
           id="path8" />
      </g>
    </g>
    <g
       transform="translate(-2.04e-4,-210.99955)"
       id="g18">
      <g
         id="g16">
        <path
           style="fill:#ffda44"
           inkscape:connector-curvature="0"
           d="m 303.104,244.611 c -0.769,-2.359 -2.809,-4.074 -5.267,-4.432 l -24.899,-3.618 -11.126,-22.481 c -2.203,-4.445 -9.484,-4.445 -11.687,0 l -11.126,22.481 -24.84,3.618 c -2.451,0.358 -4.491,2.079 -5.26,4.439 -0.769,2.353 -0.13,4.941 1.649,6.674 l 18.016,17.56 -4.25,24.775 c -0.417,2.444 0.587,4.921 2.594,6.381 2.014,1.453 4.68,1.643 6.87,0.489 l 22.187,-11.7 22.253,11.7 c 0.952,0.502 1.995,0.75 3.031,0.75 1.349,0 2.698,-0.424 3.839,-1.238 2.008,-1.467 3.011,-3.937 2.594,-6.381 l -4.243,-24.775 18.016,-17.56 c 1.78,-1.728 2.418,-4.322 1.649,-6.682 z"
           id="path14" />
      </g>
    </g>
    <g
       transform="translate(-2.04e-4,-210.99955)"
       id="g24">
      <g
         id="g22">
        <path
           style="fill:#ffda44"
           inkscape:connector-curvature="0"
           d="m 407.393,244.611 c -0.769,-2.359 -2.809,-4.074 -5.267,-4.432 l -24.899,-3.618 -11.126,-22.481 c -2.203,-4.445 -9.484,-4.445 -11.687,0 l -11.126,22.481 -24.84,3.618 c -2.451,0.358 -4.491,2.079 -5.26,4.439 -0.769,2.353 -0.13,4.941 1.649,6.674 l 18.016,17.56 -4.25,24.775 c -0.417,2.444 0.587,4.921 2.594,6.381 2.014,1.453 4.68,1.643 6.87,0.489 l 22.187,-11.7 22.253,11.7 c 0.952,0.502 1.995,0.75 3.031,0.75 1.349,0 2.698,-0.424 3.839,-1.238 2.008,-1.467 3.011,-3.937 2.594,-6.381 l -4.243,-24.775 18.016,-17.56 c 1.779,-1.728 2.418,-4.322 1.649,-6.682 z"
           id="path20" />
      </g>
    </g>
    <g
       transform="translate(-2.04e-4,-210.99955)"
       id="g30">
      <g
         id="g28">
        <path
           style="fill:#ffda44"
           inkscape:connector-curvature="0"
           d="m 511.682,244.611 c -0.776,-2.359 -2.809,-4.074 -5.267,-4.432 L 481.516,236.561 470.39,214.08 c -2.203,-4.445 -9.484,-4.445 -11.687,0 l -11.126,22.481 -24.84,3.618 c -2.451,0.358 -4.491,2.079 -5.26,4.439 -0.769,2.353 -0.13,4.941 1.649,6.674 l 18.016,17.56 -4.25,24.775 c -0.417,2.444 0.587,4.921 2.594,6.381 1.134,0.821 2.477,1.238 3.826,1.238 1.043,0 2.086,-0.248 3.05,-0.75 l 22.188,-11.7 22.259,11.7 c 2.19,1.167 4.849,0.971 6.864,-0.495 2.001,-1.46 3.005,-3.93 2.588,-6.375 l -4.243,-24.775 18.016,-17.56 c 1.778,-1.726 2.411,-4.32 1.648,-6.68 z"
           id="path26" />
      </g>
    </g>
  </g>
</svg>
